<svg width="537" height="652" viewBox="0 0 537 652" fill="none" xmlns="http://www.w3.org/2000/svg">
<path fill-rule="evenodd" clip-rule="evenodd" d="M224.83 651.29C225.56 651.03 226.57 650.82 227.07 650.82C228.96 650.82 223.67 643.98 214.27 634.27C208.9 628.73 203.06 622.18 201.3 619.72C195.67 611.87 190.12 599.58 188.89 592.25C187.83 585.96 187.93 584.63 189.95 577.92C192.9 568.1 198.84 561.7 211.41 554.77C216.41 552.02 221.85 548.77 223.5 547.56C234.1 539.79 237.29 537.69 244 534.04C253.52 528.86 264.76 525.82 274.37 525.82C282.58 525.82 296.09 529.22 302.62 532.94C309.18 536.67 320.22 543.93 326 548.32C329.02 550.61 334.42 553.99 338 555.83C346.03 559.96 353.32 566.73 356.83 573.32C359.24 577.83 359.49 579.31 359.41 588.32C359.33 597.64 359.08 598.85 355.67 606.19C350.48 617.34 344.29 625.73 332.24 637.96C325.47 644.83 322.02 649.04 322.51 649.83C323.8 651.92 331.06 650.2 341.09 645.42C374.32 629.58 397.11 609.14 405.25 587.89C406.51 584.59 407 580.41 407 572.9C407 556.56 402.41 545.72 388.43 529.03C384.8 524.7 384 523.02 384 519.72C384 514.4 385.29 512.22 389.8 509.92C393.01 508.28 394.02 508.19 397.02 509.23C415.97 515.83 431.15 543.01 429.44 567.32L428.88 575.32L434.04 569.82C446.68 556.33 460.26 528.45 462.53 511.29C463.17 506.51 463.04 506.14 459.1 501.67C456.84 499.11 455 496.74 455 496.42C455 496.09 457.52 495.82 460.6 495.82H466.2L464.18 492.4C463.07 490.52 462.43 488.72 462.75 488.4C463.07 488.08 465.26 487.82 467.61 487.82C469.96 487.82 472.19 487.33 472.56 486.73C473.47 485.25 466.93 478.64 459 473.03C437.67 457.91 426.93 449.15 408.47 431.82C383.35 408.22 379.31 400.88 383.85 387.04C389.96 368.42 406.7 352.47 427.73 345.21C433.81 343.11 436.61 342.69 442.27 343.01C448.84 343.38 449.47 343.62 452.19 346.86C460.35 356.57 463.23 373.95 461.86 405.32C461.06 423.75 461 437.8 461.73 433.85C461.99 432.49 462.99 430.69 463.96 429.85C465.89 428.18 471.04 407.17 472.93 393.32C474.33 382.96 474.32 353.84 472.89 346.24C469.81 329.73 460.96 321.82 445.57 321.82C437.38 321.82 417.99 325.1 410 327.84C403.53 330.05 386.48 338 376 343.68C367.84 348.1 353.48 354.67 350.29 355.43C348.76 355.8 347.05 356.42 346.5 356.81C345.95 357.2 342.69 358.1 339.25 358.81C330.21 360.67 320.18 359.46 305.9 354.79C283.42 347.43 263.54 347.45 238.5 354.84C236.85 355.32 232.36 356.64 228.52 357.77C214.32 361.94 200.16 359.37 181.08 349.15C156.53 336.01 151.69 333.6 142.32 329.89C123.63 322.5 98.79 319.77 90.25 324.19C86.43 326.17 80.12 333.44 79.33 336.79C78.99 338.18 78.4 339.77 78.01 340.32C76.08 343.01 74.93 355.46 74.93 373.78C74.93 384.85 75.2 394.34 75.53 394.88C75.87 395.41 76.55 399.33 77.05 403.59C78.46 415.52 82.87 432.96 84.63 433.54C86.61 434.18 87 429.43 86.01 416.7C83.44 383.73 86.05 362.01 94.1 349.33C97.46 344.03 100.01 342.82 107.85 342.82C126.04 342.82 152.44 360.73 161.58 379.27C164.94 386.09 165.5 388.15 165.48 393.77C165.45 405.45 160.28 412.31 131.49 438.85C120.44 449.03 103.4 462.39 83.69 476.32C77.64 480.59 75.33 484.47 77.58 486.57C78.3 487.25 79.56 487.54 80.39 487.23C81.21 486.91 82.6 487.05 83.47 487.54C84.86 488.32 84.75 488.8 82.53 491.38C81.14 493 80 494.66 80 495.07C80 495.48 82.25 495.82 85 495.82C87.75 495.82 90 496.27 90 496.82C90 497.37 89.55 497.82 89 497.82C88.45 497.82 88 498.29 88 498.87C88 499.44 86.78 500.96 85.29 502.25L82.58 504.57L83.86 511.45C84.57 515.23 85.5 519.22 85.94 520.32C86.37 521.42 87.55 524.79 88.55 527.82C92.6 540.06 101.83 555.73 111.07 566.06C114.4 569.78 117.45 572.82 117.85 572.82C118.24 572.82 118.57 567.53 118.57 561.07C118.58 550.28 118.84 548.65 121.75 541.12C126.65 528.43 132.98 519.51 141.77 512.9C148.53 507.82 151.73 507.13 156.74 509.69C161.93 512.34 162.97 513.78 163.16 518.57C163.29 521.97 162.53 523.69 158.41 529.32C148.21 543.25 143.61 552.54 141.59 563.32C140.36 569.91 141.17 583.27 143.11 588.3C146.22 596.35 149.6 602.15 154.32 607.57C160.6 614.76 172.38 625.82 173.75 625.82C174.31 625.82 175.34 626.53 176.06 627.39C176.78 628.26 178.97 629.86 180.93 630.96C182.89 632.06 186.3 634.04 188.5 635.37C194.79 639.17 210.01 646.46 215.42 648.27C218.13 649.17 221.05 650.33 221.92 650.84C222.79 651.35 224.1 651.55 224.83 651.29ZM183 314.92C198.22 323.62 212.99 325.69 231.65 321.73C248.65 318.12 250.25 317.85 261.12 316.71C274.28 315.32 289.55 316.68 305.5 320.66C317.18 323.57 321.24 324.03 330.6 323.5C345.71 322.64 349.63 321.54 364.11 314.11C391.75 299.92 419.21 292.98 443 294.17C455.89 294.82 465.8 296.22 467.18 297.6C468.42 298.84 473.18 297.86 472.71 296.46C472.12 294.67 460.1 286.18 452.68 282.29C432.32 271.64 397.34 260.13 364.5 253.28C360.1 252.36 355.15 251.23 353.5 250.75C350.58 249.91 337.91 247.79 311.5 243.72C304.35 242.62 295.58 241.25 292 240.68C288.42 240.12 283.02 239.29 280 238.85C244.29 233.68 227.4 227.29 214.01 213.9C208.3 208.19 207.09 206.31 205.08 200.08C202.43 191.84 202.74 184.92 206.11 177.07L208.04 172.56L205.38 167.94C203.92 165.4 201.55 161.75 200.11 159.82C185.35 140.08 171.22 108.12 164.96 80.2502C162.22 68.0502 161.07 36.3902 162.97 25.2302C163.62 21.4302 164.4 16.1202 164.71 13.4302L165.28 8.54022L161.39 9.24022C159.25 9.63022 156.15 10.3202 154.5 10.7902C145.537 13.3231 141.923 14.3069 138.398 15.5426C135.256 16.6437 132.184 17.9448 125.46 20.7202C96.71 32.5802 71.93 51.9702 52.42 77.8802C49.34 81.9702 46.41 86.2202 45.91 87.3202C45.41 88.4202 43.15 92.2502 40.89 95.8202C33.38 107.69 29.42 116.93 22.93 137.69C21.32 142.85 20 148.39 20 150.01C20 151.63 19.56 153.78 19.02 154.79C18.47 155.8 17.52 163.31 16.89 171.48C14.48 202.71 20.69 233.64 35.13 262.27C42.13 276.16 48.79 286.12 57.19 295.29C63.32 301.97 65.07 302.79 68.53 300.53C71.63 298.51 79.79 295.98 88.5 294.33C107.8 290.69 132.51 293.81 158.14 303.14C168.97 307.09 171 308.05 183 314.92ZM349.25 169.72C350.76 168.18 352 166.44 352 165.84C352 163.29 361.59 140.8 366.66 131.47C378.41 109.84 397.46 84.1002 411.19 71.3002C415.21 67.5602 423 61.2202 428.5 57.2202C434 53.2202 439.62 49.0202 441 47.8802L443.5 45.8102L440 42.7402C434.78 38.1702 421.67 29.6902 411.5 24.3002C406.55 21.6702 402.05 19.1902 401.5 18.7802C397.86 16.0802 364.96 6.84022 357.84 6.51022L353.62 6.32022L343.74 18.3202C327.4 38.1702 314.64 60.5902 307.87 81.3202C300.81 102.98 298.4 131.86 302.06 151.14C303.29 157.62 306.15 161.46 310.24 162.13C317.57 163.31 328.04 166.08 337 169.2L346.5 172.5L349.25 169.72ZM239.96 160.46C245.2 160.12 256.63 159.54 265.34 159.18C275.58 158.75 281.33 158.11 281.61 157.38C281.85 156.77 281.14 151.87 280.04 146.51C278.93 141.14 277.49 130.71 276.82 123.32C275.77 111.73 275.84 107.64 277.32 93.6002C280.7 61.4702 288.79 36.3902 303.55 12.2802C307.1 6.48022 310 1.27022 310 0.690222C310 -0.679778 234.93 0.160224 219 1.72022C207.918 2.80123 203.934 3.07711 202.165 5.19955C201.07 6.51305 200.824 8.53378 200.27 11.8902C197.95 25.8302 197.54 55.6902 199.44 72.2802C200.38 80.5202 201.32 87.5302 201.53 87.8702C201.74 88.2102 202.65 92.0502 203.54 96.4102C207.28 114.55 222.59 153.78 227.86 158.7C230.29 160.97 230.86 161.05 239.96 160.46ZM417.5 200.24C421.21 201.11 441.47 200.05 445 198.8C462.2 192.72 475.12 180.79 483.43 163.32C490.66 148.14 492.72 135.38 490.57 119.26C489.02 107.65 485.82 98.6502 479.37 87.8102C474.08 78.9102 470.61 74.8202 468.36 74.8202C466.6 74.8202 452.49 83.8102 443.5 90.6702C434.33 97.6702 415.57 116.26 407.46 126.39C393.37 143.99 382.9 161.07 378.16 174.19C374.52 184.24 374.68 184.9 381.49 187.82C383.69 188.76 387.66 190.52 390.3 191.73C395.3 194 408.42 198.11 417.5 200.24ZM441 602.96C441 605.07 445.65 603.45 451.81 599.18C470.06 586.54 489.45 568.21 501.42 552.28C503.89 549 506.75 545.2 507.78 543.82C510.99 539.54 520.78 522.38 523.53 516.21C527.09 508.21 531.71 493.85 533.45 485.34C538.57 460.32 537.74 424.93 531.44 399.7C530.57 396.19 529.46 391.48 528.99 389.24C526.3 376.55 515.81 349.75 508.4 336.64C505.26 331.08 501.3 326.83 500.04 327.66C499.79 327.83 499.22 327.15 498.79 326.14C497.92 324.14 498.22 327.15 499.96 337.82C502.58 353.89 503 358.78 503.01 373.09C503.01 381.47 502.57 391.7 502.02 395.82C501.47 399.94 500.57 406.92 500.02 411.32C498.06 426.8 496.17 435.68 490.83 454.42C489.67 458.52 489.67 458.53 493.94 462.38C500.92 468.69 508.77 482.24 510.84 491.58C511.93 496.46 511.06 497.65 508.48 494.8C506.6 492.72 502.54 492.14 501.52 493.79C501.19 494.33 502.06 497.63 503.46 501.12C504.86 504.62 506 507.78 506 508.15C506 509.41 503.51 508.81 498.5 506.34C491.06 502.68 490 502.93 490 508.31C490 517.55 484.6 533.38 475.03 552.17C467.8 566.38 453.77 587.6 445.05 597.5C442.82 600.03 441 602.49 441 602.96ZM117 614.29C117.27 614.2 118.36 613.82 119.42 613.44C121.05 612.86 119.36 610.74 108.34 599.54C92.86 583.78 83.53 571.8 73.7 555.03C66.66 543.02 57.09 519.5 57.03 514.07C57.01 512.83 56.55 511.82 56 511.82C55.45 511.82 55 510.96 55 509.9C55 504.26 51.03 503.17 45.59 507.32C43.79 508.7 42.02 509.82 41.66 509.82C40.37 509.82 41.03 506.68 43.3 502.04C44.56 499.44 45.44 496.33 45.24 495.12C44.92 493.22 44.54 493.05 42.37 493.87C38.1 495.49 36 495.06 36.01 492.57C36.04 487.99 40.03 478.6 45.1 471.2C46.65 468.93 47.72 466.88 47.48 466.63C47.24 466.39 48.83 464.44 51.02 462.3C53.21 460.16 55 457.83 55 457.12C55 453.48 37.47 458.93 27.88 465.55C10.99 477.21 0 495.72 0 512.53C0 530.12 12.9 551.94 34.84 571.49C46.03 581.46 56.52 588.57 72 596.69C86.59 604.33 114.27 615.16 117 614.29ZM231.76 487.83C226.01 489.12 211.07 489.92 206.83 489.17C202.87 488.48 199 484.44 199 481.01C199 477.38 202.17 473.88 208.05 471.04C222.84 463.88 240.52 467.16 242.58 477.45C243.45 481.8 238.8 486.25 231.76 487.83ZM340.44 488.39C336.28 489.64 322.31 490.27 319.5 489.33C318.95 489.15 317.27 488.72 315.77 488.39C314.27 488.06 311.45 486.4 309.52 484.7C304.76 480.53 304.6 475.54 309.07 471.26C312.07 468.38 312.36 468.32 322.82 468.32C332.46 468.32 334.09 468.6 339.5 471.14C346.25 474.32 348.95 477.1 348.98 480.92C349.01 484.28 346.34 486.61 340.44 488.39ZM224.99 517.88C224.94 527.92 213.73 534.13 205.35 528.77C198.22 524.2 197.37 515.25 203.48 509.14C207.07 505.55 211.74 504.78 217.6 506.84C221.41 508.17 225 513.54 224.99 517.88ZM343.13 527.86C338.84 531.4 334.03 531.75 329.3 528.86C322.34 524.62 320.9 514.77 326.43 509.25C328.72 506.95 332.01 505.82 336.36 505.82C342.1 505.82 346.51 509.29 348.05 515.01C349.44 520.17 348.05 523.81 343.13 527.86Z" fill="currentColor"/>
<path d="M275.581 603.858C275.14 604.305 287.683 600.9 293.4 594.82C301.003 586.718 302 582.022 302 576.549C302 571.585 298.145 565.861 293.4 563.768C284.376 559.78 272.573 558.849 264.661 561.497C254.641 564.85 250 569.221 250 577.386C250 583.763 252.858 588.578 260.065 595.992C266.239 601.412 276.419 604.744 275.581 603.858Z" fill="currentColor"/>
</svg>
