<svg width="541" height="434" viewBox="0 0 541 434" fill="none" xmlns="http://www.w3.org/2000/svg">
<path d="M345.6 430.528C329.01 436.278 329.03 435.248 345.86 418.188C365.04 398.738 370.83 391.628 377.84 378.868C383.97 367.698 386.28 359.598 386.17 349.538C386.09 341.778 385.74 340.298 382.49 333.908C376.07 321.258 366.23 312.918 353.54 309.378C348.49 307.968 344.2 305.778 338.48 301.698C314.3 284.448 298.82 276.988 280.42 273.688C257.25 269.548 231.83 278.528 198.48 302.658C195.73 304.648 191.45 306.848 188.98 307.558C176.02 311.238 162.95 321.818 157.72 332.878C154.5 339.688 152.59 350.398 153.51 356.608C156.21 375.008 170.29 395.588 195.49 417.978C208.18 429.248 208.03 430.818 194.71 426.108C162.01 414.558 131.97 396.898 115.37 379.468C96.5102 359.658 90.4802 343.078 94.4202 321.908C96.3702 311.428 102.04 297.748 108.08 288.948C109.91 286.288 114.89 280.408 119.15 275.878C129.21 265.178 130.57 260.198 126.05 250.588C121.24 240.348 105.17 241.658 92.8902 253.298C84.9702 260.788 76.1302 275.178 69.9102 290.688C66.7702 298.528 62.9802 310.588 62.9802 312.748C62.9802 313.768 62.5302 314.608 61.9802 314.608C61.4302 314.608 60.9802 316.028 60.9802 317.758V320.918L57.7302 317.428C52.8502 312.208 47.3803 305.538 44.7603 301.608C31.8503 282.298 11.2902 241.728 12.9102 238.768C13.4202 237.858 15.8902 235.098 18.4002 232.648C20.9202 230.198 22.9802 227.658 22.9802 227.018C22.9802 226.218 20.9002 225.878 16.5602 225.968C13.0302 226.048 9.79023 225.748 9.35023 225.308C7.98023 223.948 10.4602 221.218 15.5202 218.518C23.3002 214.368 22.5302 213.608 10.5602 213.608C1.14025 213.608 -0.0197499 213.418 0.000250085 211.858C0.000250085 210.898 0.34025 209.608 0.75025 208.988C1.47025 207.888 15.5102 198.548 23.8502 193.608C34.1402 187.518 54.2202 172.898 64.8702 163.728C81.1802 149.698 112.64 117.498 118.39 108.958C122.59 102.708 123.26 100.998 123.72 95.2884C124.23 88.8484 122.34 80.5184 119.47 76.6084C118.86 75.7784 117.83 73.9884 117.18 72.6084C113.56 64.9784 100.49 50.2784 91.2302 43.4284C78.7902 34.2184 67.6002 28.9884 54.1202 26.0784C39.9402 23.0184 34.7402 25.7384 30.6002 38.3884C27.1502 48.9484 25.2202 59.1984 24.3902 71.3584C24.0102 76.9984 23.3102 81.6084 22.8402 81.6084C22.3702 81.6084 21.9802 91.5384 21.9802 103.668C21.9802 116.288 21.6002 125.488 21.0902 125.178C20.6002 124.878 19.9703 123.158 19.6903 121.368C19.4003 119.578 18.7102 116.308 18.1502 114.108C17.0302 109.688 15.6003 100.708 13.8803 87.2784C13.2603 82.4184 12.7302 70.4884 12.7102 60.7784C12.6602 33.0784 15.2403 20.4684 23.1303 9.86842C27.2303 4.35842 31.9503 1.33842 38.2503 0.198423C42.3503 -0.551577 62.5302 0.938422 72.9802 2.75842C96.0702 6.76842 119.09 14.5684 146.98 27.8184C152.76 30.5684 162.2 34.4284 167.98 36.4184L178.48 40.0284L198.48 40.0384C215.38 40.0584 220.03 39.7184 228.48 37.8784C251.1 32.9284 280.46 31.3684 300.92 34.0184C307.62 34.8884 313.86 35.9784 314.79 36.4484C319.31 38.7084 332.52 40.1084 348.98 40.0684C366.81 40.0384 373.09 38.9884 384.48 34.1384C386.13 33.4384 390.41 31.6284 393.98 30.1284C397.55 28.6184 402.28 26.5784 404.48 25.5984C425.43 16.2484 455.6 6.60842 471.98 4.02842C496.16 0.228427 505.07 0.0184331 510.98 3.12843C515 5.24843 521.57 12.6884 524.36 18.2884C527.78 25.1484 528.65 29.4584 529.95 46.1084C531.2 62.0584 529.67 84.7584 525.91 106.108C524.74 112.708 523.56 119.528 523.29 121.268C522.95 123.358 522.09 124.608 520.73 124.968C518.69 125.498 518.68 125.308 519.31 109.308C519.96 92.6384 518.89 70.0584 516.88 58.6084C514.7 46.0984 510.79 35.4084 506.83 31.1184C503.22 27.2084 502.99 27.1284 495.31 26.7784C488.85 26.4784 486.18 26.8784 480.08 29.0084C471.01 32.1784 461.5 37.3184 453.87 43.1884C447.65 47.9784 433.41 63.0484 430.98 67.4184C430.16 68.8984 428.52 71.4684 427.34 73.1084C423.74 78.1584 419.98 88.6184 420 93.5284C420.03 98.9184 423.23 107.208 427.91 114.008C433.17 121.658 477.8 165.538 491.58 176.608C498.44 182.128 511.13 191.338 519.77 197.078C528.41 202.818 536.83 208.668 538.48 210.058C541.4 212.528 541.43 212.638 539.54 214.108C538.14 215.188 535.09 215.608 528.67 215.608C518.36 215.608 518.3 216.088 527.89 221.618C531.23 223.538 533.96 225.668 533.97 226.358C533.98 227.048 533.87 227.638 533.73 227.668C533.59 227.698 530.11 227.958 525.99 228.238C521.87 228.528 518.37 228.878 518.22 229.028C518.07 229.188 519.76 231.578 521.96 234.348C524.17 237.128 525.98 240.328 525.98 241.458C525.98 242.598 523.04 250.408 519.45 258.818C506.27 289.678 503.07 295.678 487.22 319.238C483.93 324.128 482.3 323.558 480.42 316.858C472.96 290.228 459.93 266.508 446.22 254.558C435.13 244.908 424.89 241.818 418.29 246.138C412.65 249.838 410.16 262.178 413.86 268.108C414.89 269.758 419.36 275.258 423.78 280.328C435.77 294.038 440.14 300.968 444.14 312.558C451.24 333.148 447.13 352.328 430.98 373.968C426.93 379.398 415.3 391.068 409.48 395.548C392.38 408.708 364.52 423.958 345.6 430.528ZM277.32 363.118C276.89 363.248 276.5 363.368 276.14 363.478C274.08 364.108 273.08 364.418 272.09 364.408C270.99 364.388 269.9 363.978 267.38 363.188C259.52 360.728 247.69 350.758 243.89 343.398C241.53 338.808 241.39 330.898 243.61 326.258C245.42 322.458 252.08 317.778 258.39 315.878C267.45 313.138 285.04 314.698 294.19 319.038C301.5 322.508 305.56 332.308 302.95 340.208C300.49 347.658 286.21 360.418 277.32 363.118ZM309.34 223.498C313.7 226.198 320.22 226.078 331.47 223.088C336.96 221.628 346.22 220.158 353.49 219.608C366.71 218.598 368.92 217.958 371.43 214.378C376.69 206.868 367.4 198.608 349.15 194.568C331.75 190.718 319.11 192.938 309.85 201.458C305.46 205.498 304.72 206.728 304.26 210.838C303.59 216.798 305.26 220.968 309.34 223.498ZM209.98 220.928C224.52 225.098 231.62 223.978 236.54 216.728C240.58 210.788 239.91 207.118 233.7 201.168C226.89 194.638 219.77 192.328 206.67 192.358C191.24 192.408 177.28 196.898 171.61 203.638C168.12 207.778 168.26 210.818 172.06 214.018C175.81 217.178 176.68 217.368 190.48 217.998C197.85 218.328 204.28 219.298 209.98 220.928ZM348.98 275.588C358.09 277.698 366.42 273.548 370.98 264.608C373.49 259.688 373.49 257.658 370.94 251.738C367.4 243.508 358 239.118 349.02 241.518C340.11 243.898 335.12 252.138 336.65 261.908C337.45 266.988 344.21 274.478 348.98 275.588ZM182.16 274.888C186.21 275.668 187.39 275.618 191.2 274.568C198.27 272.598 203.55 266.448 204.03 259.598C204.94 246.758 194.77 237.958 182.16 240.668C170.6 243.138 164.5 257.238 170.82 266.868C172.88 270.008 178.9 274.268 182.16 274.888Z" fill="#F9072F"/>
</svg>
